<svg xmlns="http://www.w3.org/2000/svg" width="1920" height="1080" viewBox="0 0 1920 1080">
  <defs>
    <linearGradient id="g1" x1="0" x2="1" y1="0" y2="1">
      <stop offset="0" stop-color="#0b0b11"/>
      <stop offset="1" stop-color="#171a24"/>
    </linearGradient>
    <linearGradient id="g-flag" x1="0" x2="1">
      <stop offset="0%" stop-color="#000000"/>
      <stop offset="33%" stop-color="#dd0000"/>
      <stop offset="66%" stop-color="#ffce00"/>
      <stop offset="100%" stop-color="#ffdf33"/>
    </linearGradient>
    <filter id="blur" x="-10%" y="-10%" width="120%" height="120%">
      <feGaussianBlur stdDeviation="40"/>
    </filter>
  </defs>

  <!-- dunkler Verlaufshintergrund -->
  <rect width="1920" height="1080" fill="url(#g1)"/>

  <!-- weiche Lichtflecken -->
  <circle cx="350" cy="200" r="220" fill="#66a6ff" opacity="0.18" filter="url(#blur)"/>
  <circle cx="1680" cy="240" r="260" fill="#ff7ab6" opacity="0.16" filter="url(#blur)"/>
  <circle cx="1100" cy="900" r="300" fill="#88ffc9" opacity="0.12" filter="url(#blur)"/>

  <!-- dezente "Flaggenwelle" unten -->
  <g opacity="0.35">
    <path d="M0,860 C260,780 520,920 780,880 C1040,840 1300,900 1560,860 C1740,832 1830,820 1920,828 L1920,1080 L0,1080 Z" fill="url(#g-flag)"/>
  </g>

  <!-- minimalistische Skyline (abstrakt) -->
  <g opacity="0.24" fill="#cfd7ff">
    <rect x="120" y="740" width="26" height="140" rx="4"/>
    <rect x="160" y="700" width="34" height="180" rx="4"/>
    <rect x="220" y="760" width="22" height="120" rx="4"/>
    <rect x="280" y="720" width="28" height="160" rx="4"/>
    <rect x="340" y="750" width="18" height="130" rx="4"/>

    <rect x="520" y="710" width="32" height="170" rx="4"/>
    <rect x="560" y="760" width="20" height="120" rx="4"/>
    <rect x="600" y="730" width="26" height="150" rx="4"/>
    <rect x="640" y="770" width="16" height="110" rx="4"/>

    <rect x="1040" y="690" width="20" height="190" rx="4"/>
    <rect x="1068" y="650" width="12" height="230" rx="4"/>
    <rect x="1090" y="700" width="20" height="180" rx="4"/>
    <rect x="1130" y="740" width="24" height="140" rx="4"/>

    <rect x="1500" y="720" width="26" height="160" rx="4"/>
    <rect x="1540" y="760" width="18" height="120" rx="4"/>
    <rect x="1570" y="740" width="22" height="140" rx="4"/>
    <rect x="1604" y="710" width="30" height="170" rx="4"/>
  </g>
</svg>
